<mxfile host="app.diagrams.net" modified="2021-12-03T02:38:07.025Z" agent="5.0 (Windows NT 10.0; Win64; x64) AppleWebKit/537.36 (KHTML, like Gecko) Chrome/96.0.4664.45 Safari/537.36" etag="6t70YBp1WfF1WTrNLGgH" version="14.8.5" type="github" pages="2">
  <diagram id="HafO20qMKXza9hgyYV3G" name="Page-1">
    <mxGraphModel dx="2001" dy="675" grid="1" gridSize="10" guides="1" tooltips="1" connect="1" arrows="1" fold="1" page="1" pageScale="1" pageWidth="827" pageHeight="1169" math="0" shadow="0">
      <root>
        <mxCell id="0" />
        <mxCell id="1" parent="0" />
        <mxCell id="J3SZREGznl9d5Gs7Xp---3" value="担当者" style="swimlane;horizontal=0;strokeColor=#d79b00;fillColor=#FFE6CC;" vertex="1" parent="1">
          <mxGeometry x="-180" y="20" width="1190" height="225" as="geometry" />
        </mxCell>
        <mxCell id="J3SZREGznl9d5Gs7Xp---14" value="マニュアル・元ファイルを共有" style="rounded=1;whiteSpace=wrap;html=1;strokeColor=#000000;fillColor=#FFFFFF;" vertex="1" parent="J3SZREGznl9d5Gs7Xp---3">
          <mxGeometry x="539.5" y="110" width="105" height="40" as="geometry" />
        </mxCell>
        <mxCell id="J3SZREGznl9d5Gs7Xp---16" value="サポートツールがあり、簡単作成出来る" style="shape=callout;whiteSpace=wrap;html=1;perimeter=calloutPerimeter;strokeColor=#000000;fillColor=#FFFFFF;" vertex="1" parent="J3SZREGznl9d5Gs7Xp---3">
          <mxGeometry x="587" y="30" width="120" height="80" as="geometry" />
        </mxCell>
        <mxCell id="J3SZREGznl9d5Gs7Xp---25" value="質問回答" style="rounded=1;whiteSpace=wrap;html=1;strokeColor=#000000;fillColor=#FFFFFF;" vertex="1" parent="J3SZREGznl9d5Gs7Xp---3">
          <mxGeometry x="980" y="100" width="105" height="40" as="geometry" />
        </mxCell>
        <mxCell id="J3SZREGznl9d5Gs7Xp---52" style="edgeStyle=orthogonalEdgeStyle;rounded=0;orthogonalLoop=1;jettySize=auto;html=1;" edge="1" parent="J3SZREGznl9d5Gs7Xp---3" source="J3SZREGznl9d5Gs7Xp---46" target="J3SZREGznl9d5Gs7Xp---50">
          <mxGeometry relative="1" as="geometry" />
        </mxCell>
        <mxCell id="J3SZREGznl9d5Gs7Xp---46" value="結果を確認" style="rounded=1;whiteSpace=wrap;html=1;strokeColor=#000000;fillColor=#FFFFFF;" vertex="1" parent="J3SZREGznl9d5Gs7Xp---3">
          <mxGeometry x="190" y="70" width="120" height="40" as="geometry" />
        </mxCell>
        <mxCell id="J3SZREGznl9d5Gs7Xp---50" value="結果は正解" style="rhombus;whiteSpace=wrap;html=1;strokeColor=#000000;fillColor=#FFFFFF;" vertex="1" parent="J3SZREGznl9d5Gs7Xp---3">
          <mxGeometry x="80" y="62.5" width="90" height="55" as="geometry" />
        </mxCell>
        <mxCell id="J3SZREGznl9d5Gs7Xp---61" value="有" style="text;html=1;strokeColor=none;fillColor=none;align=center;verticalAlign=middle;whiteSpace=wrap;rounded=0;" vertex="1" parent="J3SZREGznl9d5Gs7Xp---3">
          <mxGeometry x="40" y="70" width="40" height="20" as="geometry" />
        </mxCell>
        <mxCell id="J3SZREGznl9d5Gs7Xp---62" value="無" style="text;html=1;strokeColor=none;fillColor=none;align=center;verticalAlign=middle;whiteSpace=wrap;rounded=0;" vertex="1" parent="J3SZREGznl9d5Gs7Xp---3">
          <mxGeometry x="124" y="121" width="40" height="20" as="geometry" />
        </mxCell>
        <mxCell id="J3SZREGznl9d5Gs7Xp---4" value="RPAの窓口（日本側）" style="swimlane;horizontal=0;fillColor=#dae8fc;strokeColor=#6c8ebf;" vertex="1" parent="1">
          <mxGeometry x="-180" y="230" width="1190" height="230" as="geometry" />
        </mxCell>
        <mxCell id="J3SZREGznl9d5Gs7Xp---11" style="edgeStyle=orthogonalEdgeStyle;rounded=0;orthogonalLoop=1;jettySize=auto;html=1;" edge="1" parent="J3SZREGznl9d5Gs7Xp---4" source="J3SZREGznl9d5Gs7Xp---6" target="J3SZREGznl9d5Gs7Xp---9">
          <mxGeometry relative="1" as="geometry" />
        </mxCell>
        <mxCell id="J3SZREGznl9d5Gs7Xp---6" value="説明会を行う" style="rounded=1;whiteSpace=wrap;html=1;" vertex="1" parent="J3SZREGznl9d5Gs7Xp---4">
          <mxGeometry x="277" y="60" width="110" height="30" as="geometry" />
        </mxCell>
        <mxCell id="J3SZREGznl9d5Gs7Xp---7" value="" style="ellipse;whiteSpace=wrap;html=1;fillColor=#FF0000;" vertex="1" parent="J3SZREGznl9d5Gs7Xp---4">
          <mxGeometry x="220" y="65" width="20" height="20" as="geometry" />
        </mxCell>
        <mxCell id="J3SZREGznl9d5Gs7Xp---8" style="edgeStyle=orthogonalEdgeStyle;rounded=0;orthogonalLoop=1;jettySize=auto;html=1;" edge="1" parent="J3SZREGznl9d5Gs7Xp---4" source="J3SZREGznl9d5Gs7Xp---7" target="J3SZREGznl9d5Gs7Xp---6">
          <mxGeometry relative="1" as="geometry" />
        </mxCell>
        <mxCell id="J3SZREGznl9d5Gs7Xp---13" style="edgeStyle=orthogonalEdgeStyle;rounded=0;orthogonalLoop=1;jettySize=auto;html=1;" edge="1" parent="J3SZREGznl9d5Gs7Xp---4" source="J3SZREGznl9d5Gs7Xp---9" target="J3SZREGznl9d5Gs7Xp---12">
          <mxGeometry relative="1" as="geometry" />
        </mxCell>
        <mxCell id="J3SZREGznl9d5Gs7Xp---9" value="ヒアリング" style="rounded=1;whiteSpace=wrap;html=1;strokeColor=#000000;fillColor=#FFFFFF;" vertex="1" parent="J3SZREGznl9d5Gs7Xp---4">
          <mxGeometry x="420" y="60" width="110" height="30" as="geometry" />
        </mxCell>
        <mxCell id="J3SZREGznl9d5Gs7Xp---12" value="マニュアル・元ファイルをリクエスト" style="rounded=1;whiteSpace=wrap;html=1;strokeColor=#000000;fillColor=#FFFFFF;" vertex="1" parent="J3SZREGznl9d5Gs7Xp---4">
          <mxGeometry x="550" y="55" width="110" height="40" as="geometry" />
        </mxCell>
        <mxCell id="J3SZREGznl9d5Gs7Xp---21" style="edgeStyle=orthogonalEdgeStyle;rounded=0;orthogonalLoop=1;jettySize=auto;html=1;" edge="1" parent="J3SZREGznl9d5Gs7Xp---4" source="J3SZREGznl9d5Gs7Xp---17" target="J3SZREGznl9d5Gs7Xp---20">
          <mxGeometry relative="1" as="geometry" />
        </mxCell>
        <mxCell id="J3SZREGznl9d5Gs7Xp---17" value="詳細業務を確認" style="rounded=1;whiteSpace=wrap;html=1;strokeColor=#000000;fillColor=#FFFFFF;" vertex="1" parent="J3SZREGznl9d5Gs7Xp---4">
          <mxGeometry x="687" y="57.5" width="100" height="35" as="geometry" />
        </mxCell>
        <mxCell id="J3SZREGznl9d5Gs7Xp---24" style="edgeStyle=orthogonalEdgeStyle;rounded=0;orthogonalLoop=1;jettySize=auto;html=1;" edge="1" parent="J3SZREGznl9d5Gs7Xp---4" source="J3SZREGznl9d5Gs7Xp---20" target="J3SZREGznl9d5Gs7Xp---22">
          <mxGeometry relative="1" as="geometry" />
        </mxCell>
        <mxCell id="J3SZREGznl9d5Gs7Xp---20" value="Q&amp;amp;A" style="rhombus;whiteSpace=wrap;html=1;strokeColor=#000000;fillColor=#FFFFFF;" vertex="1" parent="J3SZREGznl9d5Gs7Xp---4">
          <mxGeometry x="854" y="49" width="80" height="52" as="geometry" />
        </mxCell>
        <mxCell id="J3SZREGznl9d5Gs7Xp---22" value="業務確認" style="rounded=1;whiteSpace=wrap;html=1;strokeColor=#000000;fillColor=#FFFFFF;" vertex="1" parent="J3SZREGznl9d5Gs7Xp---4">
          <mxGeometry x="977" y="55" width="105" height="40" as="geometry" />
        </mxCell>
        <mxCell id="J3SZREGznl9d5Gs7Xp---39" value="" style="edgeStyle=orthogonalEdgeStyle;rounded=0;orthogonalLoop=1;jettySize=auto;html=1;" edge="1" parent="J3SZREGznl9d5Gs7Xp---4" source="J3SZREGznl9d5Gs7Xp---35" target="J3SZREGznl9d5Gs7Xp---37">
          <mxGeometry relative="1" as="geometry" />
        </mxCell>
        <mxCell id="J3SZREGznl9d5Gs7Xp---35" value="ロボットテスト" style="rounded=1;whiteSpace=wrap;html=1;strokeColor=#000000;fillColor=#FFFFFF;" vertex="1" parent="J3SZREGznl9d5Gs7Xp---4">
          <mxGeometry x="757" y="132.5" width="120" height="40" as="geometry" />
        </mxCell>
        <mxCell id="J3SZREGznl9d5Gs7Xp---45" style="edgeStyle=orthogonalEdgeStyle;rounded=0;orthogonalLoop=1;jettySize=auto;html=1;entryX=1;entryY=0.5;entryDx=0;entryDy=0;" edge="1" parent="J3SZREGznl9d5Gs7Xp---4" source="J3SZREGznl9d5Gs7Xp---37" target="J3SZREGznl9d5Gs7Xp---44">
          <mxGeometry relative="1" as="geometry" />
        </mxCell>
        <mxCell id="J3SZREGznl9d5Gs7Xp---37" value="不具合・正しくない" style="rhombus;whiteSpace=wrap;html=1;strokeColor=#000000;fillColor=#FFFFFF;" vertex="1" parent="J3SZREGznl9d5Gs7Xp---4">
          <mxGeometry x="577" y="125" width="140" height="55" as="geometry" />
        </mxCell>
        <mxCell id="J3SZREGznl9d5Gs7Xp---43" value="有" style="text;html=1;strokeColor=none;fillColor=none;align=center;verticalAlign=middle;whiteSpace=wrap;rounded=0;" vertex="1" parent="J3SZREGznl9d5Gs7Xp---4">
          <mxGeometry x="647" y="180" width="40" height="20" as="geometry" />
        </mxCell>
        <mxCell id="J3SZREGznl9d5Gs7Xp---44" value="ロボットを納品" style="rounded=1;whiteSpace=wrap;html=1;strokeColor=#000000;fillColor=#FFFFFF;" vertex="1" parent="J3SZREGznl9d5Gs7Xp---4">
          <mxGeometry x="387" y="132.5" width="120" height="40" as="geometry" />
        </mxCell>
        <mxCell id="J3SZREGznl9d5Gs7Xp---28" value="有" style="text;html=1;strokeColor=none;fillColor=none;align=center;verticalAlign=middle;whiteSpace=wrap;rounded=0;" vertex="1" parent="J3SZREGznl9d5Gs7Xp---4">
          <mxGeometry x="937" y="55" width="40" height="20" as="geometry" />
        </mxCell>
        <mxCell id="J3SZREGznl9d5Gs7Xp---42" value="無" style="text;html=1;strokeColor=none;fillColor=none;align=center;verticalAlign=middle;whiteSpace=wrap;rounded=0;" vertex="1" parent="J3SZREGznl9d5Gs7Xp---4">
          <mxGeometry x="897" y="112.5" width="40" height="20" as="geometry" />
        </mxCell>
        <mxCell id="J3SZREGznl9d5Gs7Xp---51" value="無" style="text;html=1;strokeColor=none;fillColor=none;align=center;verticalAlign=middle;whiteSpace=wrap;rounded=0;" vertex="1" parent="J3SZREGznl9d5Gs7Xp---4">
          <mxGeometry x="530" y="132.5" width="40" height="20" as="geometry" />
        </mxCell>
        <mxCell id="J3SZREGznl9d5Gs7Xp---53" value="正しくない連絡" style="rounded=1;whiteSpace=wrap;html=1;strokeColor=#000000;fillColor=#FFFFFF;" vertex="1" parent="J3SZREGznl9d5Gs7Xp---4">
          <mxGeometry x="90" y="60" width="110" height="30" as="geometry" />
        </mxCell>
        <mxCell id="J3SZREGznl9d5Gs7Xp---60" style="edgeStyle=orthogonalEdgeStyle;rounded=0;orthogonalLoop=1;jettySize=auto;html=1;entryX=0.5;entryY=0;entryDx=0;entryDy=0;" edge="1" parent="J3SZREGznl9d5Gs7Xp---4" source="J3SZREGznl9d5Gs7Xp---56" target="J3SZREGznl9d5Gs7Xp---59">
          <mxGeometry relative="1" as="geometry" />
        </mxCell>
        <mxCell id="J3SZREGznl9d5Gs7Xp---56" value="ロボット運用" style="rounded=1;whiteSpace=wrap;html=1;strokeColor=#000000;fillColor=#FFFFFF;" vertex="1" parent="J3SZREGznl9d5Gs7Xp---4">
          <mxGeometry x="30" y="112.5" width="100" height="42.5" as="geometry" />
        </mxCell>
        <mxCell id="J3SZREGznl9d5Gs7Xp---59" value="" style="ellipse;whiteSpace=wrap;html=1;aspect=fixed;strokeColor=#000000;fillColor=#000000;" vertex="1" parent="J3SZREGznl9d5Gs7Xp---4">
          <mxGeometry x="70" y="190" width="20" height="20" as="geometry" />
        </mxCell>
        <mxCell id="J3SZREGznl9d5Gs7Xp---5" value="RPA開発者（オフショア）" style="swimlane;horizontal=0;fillColor=#d5e8d4;strokeColor=#82b366;" vertex="1" parent="1">
          <mxGeometry x="-180" y="450" width="1190" height="150" as="geometry" />
        </mxCell>
        <mxCell id="J3SZREGznl9d5Gs7Xp---32" style="edgeStyle=orthogonalEdgeStyle;rounded=0;orthogonalLoop=1;jettySize=auto;html=1;entryX=0.5;entryY=0;entryDx=0;entryDy=0;" edge="1" parent="J3SZREGznl9d5Gs7Xp---5" source="J3SZREGznl9d5Gs7Xp---29" target="J3SZREGznl9d5Gs7Xp---31">
          <mxGeometry relative="1" as="geometry" />
        </mxCell>
        <mxCell id="J3SZREGznl9d5Gs7Xp---29" value="ロボットを開発" style="rounded=1;whiteSpace=wrap;html=1;strokeColor=#000000;fillColor=#FFFFFF;" vertex="1" parent="J3SZREGznl9d5Gs7Xp---5">
          <mxGeometry x="947" y="20" width="120" height="30" as="geometry" />
        </mxCell>
        <mxCell id="J3SZREGznl9d5Gs7Xp---34" style="edgeStyle=orthogonalEdgeStyle;rounded=0;orthogonalLoop=1;jettySize=auto;html=1;entryX=1;entryY=0.5;entryDx=0;entryDy=0;" edge="1" parent="J3SZREGznl9d5Gs7Xp---5" source="J3SZREGznl9d5Gs7Xp---31" target="J3SZREGznl9d5Gs7Xp---33">
          <mxGeometry relative="1" as="geometry" />
        </mxCell>
        <mxCell id="J3SZREGznl9d5Gs7Xp---31" value="単体テスト" style="rounded=1;whiteSpace=wrap;html=1;strokeColor=#000000;fillColor=#FFFFFF;" vertex="1" parent="J3SZREGznl9d5Gs7Xp---5">
          <mxGeometry x="947" y="85" width="120" height="35" as="geometry" />
        </mxCell>
        <mxCell id="J3SZREGznl9d5Gs7Xp---33" value="ロボットを提出" style="rounded=1;whiteSpace=wrap;html=1;strokeColor=#000000;fillColor=#FFFFFF;" vertex="1" parent="J3SZREGznl9d5Gs7Xp---5">
          <mxGeometry x="757" y="83.75" width="120" height="37.5" as="geometry" />
        </mxCell>
        <mxCell id="J3SZREGznl9d5Gs7Xp---40" value="ロボットを修正" style="rounded=1;whiteSpace=wrap;html=1;strokeColor=#000000;fillColor=#FFFFFF;" vertex="1" parent="J3SZREGznl9d5Gs7Xp---5">
          <mxGeometry x="521" y="70" width="120" height="40" as="geometry" />
        </mxCell>
        <mxCell id="J3SZREGznl9d5Gs7Xp---15" style="edgeStyle=orthogonalEdgeStyle;rounded=0;orthogonalLoop=1;jettySize=auto;html=1;entryX=0.5;entryY=1;entryDx=0;entryDy=0;" edge="1" parent="1" source="J3SZREGznl9d5Gs7Xp---12" target="J3SZREGznl9d5Gs7Xp---14">
          <mxGeometry relative="1" as="geometry" />
        </mxCell>
        <mxCell id="J3SZREGznl9d5Gs7Xp---19" style="edgeStyle=orthogonalEdgeStyle;rounded=0;orthogonalLoop=1;jettySize=auto;html=1;entryX=0.5;entryY=0;entryDx=0;entryDy=0;" edge="1" parent="1" source="J3SZREGznl9d5Gs7Xp---14" target="J3SZREGznl9d5Gs7Xp---17">
          <mxGeometry relative="1" as="geometry" />
        </mxCell>
        <mxCell id="J3SZREGznl9d5Gs7Xp---26" style="edgeStyle=orthogonalEdgeStyle;rounded=0;orthogonalLoop=1;jettySize=auto;html=1;" edge="1" parent="1" source="J3SZREGznl9d5Gs7Xp---22">
          <mxGeometry relative="1" as="geometry">
            <mxPoint x="849.5" y="160" as="targetPoint" />
          </mxGeometry>
        </mxCell>
        <mxCell id="J3SZREGznl9d5Gs7Xp---27" style="edgeStyle=orthogonalEdgeStyle;rounded=0;orthogonalLoop=1;jettySize=auto;html=1;entryX=0.75;entryY=0;entryDx=0;entryDy=0;" edge="1" parent="1" target="J3SZREGznl9d5Gs7Xp---17">
          <mxGeometry relative="1" as="geometry">
            <mxPoint x="797" y="140" as="sourcePoint" />
          </mxGeometry>
        </mxCell>
        <mxCell id="J3SZREGznl9d5Gs7Xp---30" style="edgeStyle=orthogonalEdgeStyle;rounded=0;orthogonalLoop=1;jettySize=auto;html=1;" edge="1" parent="1" source="J3SZREGznl9d5Gs7Xp---20" target="J3SZREGznl9d5Gs7Xp---29">
          <mxGeometry relative="1" as="geometry">
            <Array as="points">
              <mxPoint x="904" y="360" />
              <mxPoint x="1017" y="360" />
            </Array>
          </mxGeometry>
        </mxCell>
        <mxCell id="J3SZREGznl9d5Gs7Xp---36" style="edgeStyle=orthogonalEdgeStyle;rounded=0;orthogonalLoop=1;jettySize=auto;html=1;" edge="1" parent="1" source="J3SZREGznl9d5Gs7Xp---33" target="J3SZREGznl9d5Gs7Xp---35">
          <mxGeometry relative="1" as="geometry" />
        </mxCell>
        <mxCell id="J3SZREGznl9d5Gs7Xp---41" style="edgeStyle=orthogonalEdgeStyle;rounded=0;orthogonalLoop=1;jettySize=auto;html=1;" edge="1" parent="1" source="J3SZREGznl9d5Gs7Xp---37" target="J3SZREGznl9d5Gs7Xp---40">
          <mxGeometry relative="1" as="geometry" />
        </mxCell>
        <mxCell id="J3SZREGznl9d5Gs7Xp---48" style="edgeStyle=orthogonalEdgeStyle;rounded=0;orthogonalLoop=1;jettySize=auto;html=1;entryX=0.148;entryY=1.045;entryDx=0;entryDy=0;entryPerimeter=0;" edge="1" parent="1" source="J3SZREGznl9d5Gs7Xp---44" target="J3SZREGznl9d5Gs7Xp---46">
          <mxGeometry relative="1" as="geometry" />
        </mxCell>
        <mxCell id="J3SZREGznl9d5Gs7Xp---54" style="edgeStyle=orthogonalEdgeStyle;rounded=0;orthogonalLoop=1;jettySize=auto;html=1;" edge="1" parent="1" source="J3SZREGznl9d5Gs7Xp---50" target="J3SZREGznl9d5Gs7Xp---53">
          <mxGeometry relative="1" as="geometry" />
        </mxCell>
        <mxCell id="J3SZREGznl9d5Gs7Xp---55" style="edgeStyle=orthogonalEdgeStyle;rounded=0;orthogonalLoop=1;jettySize=auto;html=1;entryX=0;entryY=0.75;entryDx=0;entryDy=0;" edge="1" parent="1" source="J3SZREGznl9d5Gs7Xp---53" target="J3SZREGznl9d5Gs7Xp---40">
          <mxGeometry relative="1" as="geometry">
            <Array as="points">
              <mxPoint x="-35" y="400" />
              <mxPoint x="181" y="400" />
              <mxPoint x="181" y="550" />
            </Array>
          </mxGeometry>
        </mxCell>
        <mxCell id="J3SZREGznl9d5Gs7Xp---57" style="edgeStyle=orthogonalEdgeStyle;rounded=0;orthogonalLoop=1;jettySize=auto;html=1;" edge="1" parent="1" source="J3SZREGznl9d5Gs7Xp---50" target="J3SZREGznl9d5Gs7Xp---56">
          <mxGeometry relative="1" as="geometry">
            <Array as="points">
              <mxPoint x="-130" y="110" />
            </Array>
          </mxGeometry>
        </mxCell>
      </root>
    </mxGraphModel>
  </diagram>
  <diagram id="O5OnD6QcAkfrZQiFQkRa" name="Page-2">
    <mxGraphModel dx="1028" dy="675" grid="1" gridSize="10" guides="1" tooltips="1" connect="1" arrows="1" fold="1" page="1" pageScale="1" pageWidth="827" pageHeight="1169" math="0" shadow="0">
      <root>
        <mxCell id="9YNtTWzEN2G9ouo6eS6_-0" />
        <mxCell id="9YNtTWzEN2G9ouo6eS6_-1" parent="9YNtTWzEN2G9ouo6eS6_-0" />
        <mxCell id="9YNtTWzEN2G9ouo6eS6_-2" value="商品部" style="swimlane;horizontal=0;strokeColor=#000000;fillColor=#FFE6CC;" vertex="1" parent="9YNtTWzEN2G9ouo6eS6_-1">
          <mxGeometry y="30" width="910" height="200" as="geometry" />
        </mxCell>
        <mxCell id="9YNtTWzEN2G9ouo6eS6_-4" value="" style="ellipse;whiteSpace=wrap;html=1;aspect=fixed;strokeColor=#000000;fillColor=#FF0000;direction=south;" vertex="1" parent="9YNtTWzEN2G9ouo6eS6_-2">
          <mxGeometry x="60" y="50" width="20" height="20" as="geometry" />
        </mxCell>
        <mxCell id="9YNtTWzEN2G9ouo6eS6_-3" value="会計チーム" style="swimlane;horizontal=0;strokeColor=#000000;fillColor=#FFE6CC;" vertex="1" parent="9YNtTWzEN2G9ouo6eS6_-1">
          <mxGeometry y="240" width="910" height="200" as="geometry" />
        </mxCell>
      </root>
    </mxGraphModel>
  </diagram>
</mxfile>
